<mxfile host="app.diagrams.net" modified="2023-04-28T03:30:34.435Z" agent="Mozilla/5.0 (X11; Ubuntu; Linux x86_64; rv:109.0) Gecko/20100101 Firefox/112.0" version="21.2.3" etag="xYmfMY1b6xry3n48WI41" type="github">
  <diagram name="Page-1" id="l-h-STxEdBgPI0Z9pJ20">
    <mxGraphModel>
      <root>
        <mxCell id="0" />
        <mxCell id="1" parent="0" />
      </root>
    </mxGraphModel>
  </diagram>
</mxfile>
